<mxfile host="app.diagrams.net" modified="2021-08-05T15:20:03.777Z" agent="5.0 (Windows NT 10.0; Win64; x64) AppleWebKit/537.36 (KHTML, like Gecko) Chrome/92.0.4515.131 Safari/537.36" etag="OYzhjFFP7EQ_PWwAmTwm" version="14.9.2" type="github">
  <diagram id="C5RBs43oDa-KdzZeNtuy" name="Page-1">
    <mxGraphModel dx="1426" dy="669" grid="1" gridSize="10" guides="1" tooltips="1" connect="1" arrows="1" fold="1" page="1" pageScale="1" pageWidth="827" pageHeight="1169" math="0" shadow="0">
      <root>
        <mxCell id="WIyWlLk6GJQsqaUBKTNV-0" />
        <mxCell id="WIyWlLk6GJQsqaUBKTNV-1" parent="WIyWlLk6GJQsqaUBKTNV-0" />
        <mxCell id="KuQrWDAWYOpR2Fp9qKTV-2" value="Employee" style="swimlane;fontStyle=1;childLayout=stackLayout;horizontal=1;startSize=26;horizontalStack=0;resizeParent=1;resizeParentMax=0;resizeLast=0;collapsible=1;marginBottom=0;" parent="WIyWlLk6GJQsqaUBKTNV-1" vertex="1">
          <mxGeometry x="120" y="240" width="150" height="180" as="geometry" />
        </mxCell>
        <mxCell id="KuQrWDAWYOpR2Fp9qKTV-3" value="emp_id: string&#xa;first_name: string&#xa;last name: string&#xa;address: string&#xa;city: string&#xa;state: string&#xa;zipcode: string&#xa;classification: an instance&#xa; of : hourly, salaried, or&#xa; commissioned" style="text;strokeColor=none;fillColor=none;align=left;verticalAlign=top;spacingLeft=4;spacingRight=4;overflow=hidden;rotatable=0;points=[[0,0.5],[1,0.5]];portConstraint=eastwest;" parent="KuQrWDAWYOpR2Fp9qKTV-2" vertex="1">
          <mxGeometry y="26" width="150" height="154" as="geometry" />
        </mxCell>
        <mxCell id="KuQrWDAWYOpR2Fp9qKTV-6" value="+initiate_pay()&lt;br&gt;+make_hourly()&lt;br&gt;+make_salaried()&lt;br&gt;+make_comissioned()&lt;br&gt;+manage_attibute()" style="rounded=0;whiteSpace=wrap;html=1;" parent="WIyWlLk6GJQsqaUBKTNV-1" vertex="1">
          <mxGeometry x="120" y="420" width="150" height="130" as="geometry" />
        </mxCell>
        <mxCell id="KuQrWDAWYOpR2Fp9qKTV-13" value="" style="endArrow=diamondThin;startArrow=openThin;html=1;endFill=1;startFill=0;endSize=8;startSize=8;" parent="WIyWlLk6GJQsqaUBKTNV-1" edge="1">
          <mxGeometry width="50" height="50" relative="1" as="geometry">
            <mxPoint x="360" y="318" as="sourcePoint" />
            <mxPoint x="260" y="318" as="targetPoint" />
          </mxGeometry>
        </mxCell>
        <mxCell id="KuQrWDAWYOpR2Fp9qKTV-14" value="Classification" style="swimlane;fontStyle=1;childLayout=stackLayout;horizontal=1;startSize=26;horizontalStack=0;resizeParent=1;resizeParentMax=0;resizeLast=0;collapsible=1;marginBottom=0;" parent="WIyWlLk6GJQsqaUBKTNV-1" vertex="1">
          <mxGeometry x="360" y="270" width="140" height="52" as="geometry" />
        </mxCell>
        <mxCell id="KuQrWDAWYOpR2Fp9qKTV-15" value="+ field: type" style="text;strokeColor=none;fillColor=none;align=left;verticalAlign=top;spacingLeft=4;spacingRight=4;overflow=hidden;rotatable=0;points=[[0,0.5],[1,0.5]];portConstraint=eastwest;" parent="KuQrWDAWYOpR2Fp9qKTV-14" vertex="1">
          <mxGeometry y="26" width="140" height="26" as="geometry" />
        </mxCell>
        <mxCell id="KuQrWDAWYOpR2Fp9qKTV-18" value="Hourly" style="swimlane;fontStyle=1;childLayout=stackLayout;horizontal=1;startSize=26;horizontalStack=0;resizeParent=1;resizeParentMax=0;resizeLast=0;collapsible=1;marginBottom=0;" parent="WIyWlLk6GJQsqaUBKTNV-1" vertex="1">
          <mxGeometry x="290" y="420" width="140" height="52" as="geometry" />
        </mxCell>
        <mxCell id="KuQrWDAWYOpR2Fp9qKTV-19" value="+ field: type" style="text;strokeColor=none;fillColor=none;align=left;verticalAlign=top;spacingLeft=4;spacingRight=4;overflow=hidden;rotatable=0;points=[[0,0.5],[1,0.5]];portConstraint=eastwest;" parent="KuQrWDAWYOpR2Fp9qKTV-18" vertex="1">
          <mxGeometry y="26" width="140" height="26" as="geometry" />
        </mxCell>
        <mxCell id="KuQrWDAWYOpR2Fp9qKTV-22" value="&lt;span style=&quot;text-align: left&quot;&gt;+ compute_pay():&amp;nbsp;&lt;/span&gt;" style="rounded=0;whiteSpace=wrap;html=1;" parent="WIyWlLk6GJQsqaUBKTNV-1" vertex="1">
          <mxGeometry x="290" y="472" width="140" height="28" as="geometry" />
        </mxCell>
        <mxCell id="KuQrWDAWYOpR2Fp9qKTV-23" value="&lt;span style=&quot;text-align: left&quot;&gt;+ compute_pay():&amp;nbsp;&lt;/span&gt;" style="rounded=0;whiteSpace=wrap;html=1;" parent="WIyWlLk6GJQsqaUBKTNV-1" vertex="1">
          <mxGeometry x="360" y="320" width="140" height="30" as="geometry" />
        </mxCell>
        <mxCell id="KuQrWDAWYOpR2Fp9qKTV-25" value="Salaried" style="swimlane;fontStyle=1;childLayout=stackLayout;horizontal=1;startSize=26;horizontalStack=0;resizeParent=1;resizeParentMax=0;resizeLast=0;collapsible=1;marginBottom=0;" parent="WIyWlLk6GJQsqaUBKTNV-1" vertex="1">
          <mxGeometry x="460" y="420" width="140" height="52" as="geometry" />
        </mxCell>
        <mxCell id="KuQrWDAWYOpR2Fp9qKTV-26" value="+ field: type" style="text;strokeColor=none;fillColor=none;align=left;verticalAlign=top;spacingLeft=4;spacingRight=4;overflow=hidden;rotatable=0;points=[[0,0.5],[1,0.5]];portConstraint=eastwest;" parent="KuQrWDAWYOpR2Fp9qKTV-25" vertex="1">
          <mxGeometry y="26" width="140" height="26" as="geometry" />
        </mxCell>
        <mxCell id="KuQrWDAWYOpR2Fp9qKTV-27" value="&lt;span style=&quot;text-align: left&quot;&gt;+&amp;nbsp;&lt;/span&gt;&lt;span style=&quot;text-align: left&quot;&gt;compute_pay():&amp;nbsp;&lt;/span&gt;" style="rounded=0;whiteSpace=wrap;html=1;" parent="WIyWlLk6GJQsqaUBKTNV-1" vertex="1">
          <mxGeometry x="460" y="472" width="140" height="28" as="geometry" />
        </mxCell>
        <mxCell id="KuQrWDAWYOpR2Fp9qKTV-28" value="PaymentMethod" style="swimlane;fontStyle=1;childLayout=stackLayout;horizontal=1;startSize=26;horizontalStack=0;resizeParent=1;resizeParentMax=0;resizeLast=0;collapsible=1;marginBottom=0;" parent="WIyWlLk6GJQsqaUBKTNV-1" vertex="1">
          <mxGeometry x="240" y="120" width="140" height="52" as="geometry" />
        </mxCell>
        <mxCell id="KuQrWDAWYOpR2Fp9qKTV-29" value="+ field: type" style="text;strokeColor=none;fillColor=none;align=left;verticalAlign=top;spacingLeft=4;spacingRight=4;overflow=hidden;rotatable=0;points=[[0,0.5],[1,0.5]];portConstraint=eastwest;" parent="KuQrWDAWYOpR2Fp9qKTV-28" vertex="1">
          <mxGeometry y="26" width="140" height="26" as="geometry" />
        </mxCell>
        <mxCell id="KuQrWDAWYOpR2Fp9qKTV-41" style="edgeStyle=orthogonalEdgeStyle;rounded=0;orthogonalLoop=1;jettySize=auto;html=1;entryX=1;entryY=0.5;entryDx=0;entryDy=0;dashed=1;startArrow=openThin;startFill=0;endArrow=none;endFill=0;startSize=8;endSize=8;" parent="WIyWlLk6GJQsqaUBKTNV-1" source="KuQrWDAWYOpR2Fp9qKTV-30" target="KuQrWDAWYOpR2Fp9qKTV-3" edge="1">
          <mxGeometry relative="1" as="geometry" />
        </mxCell>
        <mxCell id="KuQrWDAWYOpR2Fp9qKTV-30" value="&lt;span style=&quot;text-align: left&quot;&gt;+ method(type): type&lt;/span&gt;" style="rounded=0;whiteSpace=wrap;html=1;" parent="WIyWlLk6GJQsqaUBKTNV-1" vertex="1">
          <mxGeometry x="240" y="172" width="140" height="28" as="geometry" />
        </mxCell>
        <mxCell id="KuQrWDAWYOpR2Fp9qKTV-34" value="Commissioned" style="swimlane;fontStyle=1;childLayout=stackLayout;horizontal=1;startSize=26;horizontalStack=0;resizeParent=1;resizeParentMax=0;resizeLast=0;collapsible=1;marginBottom=0;" parent="WIyWlLk6GJQsqaUBKTNV-1" vertex="1">
          <mxGeometry x="480" y="560" width="140" height="52" as="geometry" />
        </mxCell>
        <mxCell id="KuQrWDAWYOpR2Fp9qKTV-35" value="+ field: type" style="text;strokeColor=none;fillColor=none;align=left;verticalAlign=top;spacingLeft=4;spacingRight=4;overflow=hidden;rotatable=0;points=[[0,0.5],[1,0.5]];portConstraint=eastwest;" parent="KuQrWDAWYOpR2Fp9qKTV-34" vertex="1">
          <mxGeometry y="26" width="140" height="26" as="geometry" />
        </mxCell>
        <mxCell id="KuQrWDAWYOpR2Fp9qKTV-36" value="&lt;span style=&quot;text-align: left&quot;&gt;+&amp;nbsp;&lt;/span&gt;&lt;span style=&quot;text-align: left&quot;&gt;compute_commipay():&amp;nbsp;&lt;/span&gt;" style="rounded=0;whiteSpace=wrap;html=1;" parent="WIyWlLk6GJQsqaUBKTNV-1" vertex="1">
          <mxGeometry x="480" y="612" width="140" height="28" as="geometry" />
        </mxCell>
        <mxCell id="i-LFN0P6Zy3X0rUG810r-0" value="" style="endArrow=block;html=1;exitX=0.5;exitY=0;exitDx=0;exitDy=0;entryX=0.329;entryY=1.167;entryDx=0;entryDy=0;entryPerimeter=0;endFill=0;" edge="1" parent="WIyWlLk6GJQsqaUBKTNV-1" source="KuQrWDAWYOpR2Fp9qKTV-18" target="KuQrWDAWYOpR2Fp9qKTV-23">
          <mxGeometry width="50" height="50" relative="1" as="geometry">
            <mxPoint x="390" y="470" as="sourcePoint" />
            <mxPoint x="400" y="370" as="targetPoint" />
          </mxGeometry>
        </mxCell>
        <mxCell id="i-LFN0P6Zy3X0rUG810r-1" value="" style="endArrow=block;html=1;exitX=0.45;exitY=-0.058;exitDx=0;exitDy=0;exitPerimeter=0;endFill=0;" edge="1" parent="WIyWlLk6GJQsqaUBKTNV-1" source="KuQrWDAWYOpR2Fp9qKTV-25">
          <mxGeometry width="50" height="50" relative="1" as="geometry">
            <mxPoint x="390" y="470" as="sourcePoint" />
            <mxPoint x="450" y="360" as="targetPoint" />
          </mxGeometry>
        </mxCell>
        <mxCell id="i-LFN0P6Zy3X0rUG810r-2" value="" style="endArrow=block;html=1;exitX=0.5;exitY=0;exitDx=0;exitDy=0;entryX=0.55;entryY=1.107;entryDx=0;entryDy=0;entryPerimeter=0;endFill=0;" edge="1" parent="WIyWlLk6GJQsqaUBKTNV-1" source="KuQrWDAWYOpR2Fp9qKTV-34" target="KuQrWDAWYOpR2Fp9qKTV-27">
          <mxGeometry width="50" height="50" relative="1" as="geometry">
            <mxPoint x="390" y="470" as="sourcePoint" />
            <mxPoint x="440" y="420" as="targetPoint" />
          </mxGeometry>
        </mxCell>
        <mxCell id="i-LFN0P6Zy3X0rUG810r-4" value="&lt;br&gt;&lt;span class=&quot;textLayer--absolute&quot; style=&quot;box-sizing: border-box ; color: transparent ; position: relative ; cursor: text ; transform-origin: 0% 0% ; display: block ; float: left ; margin-bottom: -918px ; margin-right: -918px ; background-color: rgb(242 , 242 , 242) ; left: 383.358px ; top: 588.733px ; font-size: 18px ; font-family: sans-serif ; transform: scalex(0.937508)&quot;&gt;load_employees&lt;/span&gt;&lt;span class=&quot;textLayer--absolute&quot; style=&quot;box-sizing: border-box ; color: transparent ; position: relative ; cursor: text ; transform-origin: 0% 0% ; display: block ; float: left ; margin-bottom: -918px ; margin-right: -918px ; background-color: rgb(242 , 242 , 242) ; left: 506.255px ; top: 588.733px ; font-size: 18px ; font-family: sans-serif ; transform: scalex(0.854833)&quot;&gt;, &lt;/span&gt;&lt;span class=&quot;textLayer--absolute&quot; style=&quot;box-sizing: border-box ; color: transparent ; position: relative ; cursor: text ; transform-origin: 0% 0% ; display: block ; float: left ; margin-bottom: -918px ; margin-right: -918px ; background-color: rgb(242 , 242 , 242) ; left: 514.816px ; top: 588.733px ; font-size: 18px ; font-family: sans-serif ; transform: scalex(0.924668)&quot;&gt;process_timecards&lt;/span&gt;&lt;div&gt;&lt;br&gt;&lt;/div&gt;&lt;div&gt;&lt;span class=&quot;textLayer--absolute&quot; style=&quot;box-sizing: border-box ; color: transparent ; position: relative ; cursor: text ; transform-origin: 0% 0% ; display: block ; float: left ; margin-bottom: -918px ; margin-right: -918px ; background-color: rgb(242 , 242 , 242) ; left: 383.358px ; top: 588.733px ; font-size: 18px ; font-family: sans-serif ; transform: scalex(0.937508)&quot;&gt;load_employees&lt;/span&gt;&lt;span class=&quot;textLayer--absolute&quot; style=&quot;box-sizing: border-box ; color: transparent ; position: relative ; cursor: text ; transform-origin: 0% 0% ; display: block ; float: left ; margin-bottom: -918px ; margin-right: -918px ; background-color: rgb(242 , 242 , 242) ; left: 506.255px ; top: 588.733px ; font-size: 18px ; font-family: sans-serif ; transform: scalex(0.854833)&quot;&gt;, &lt;/span&gt;&lt;span class=&quot;textLayer--absolute&quot; style=&quot;box-sizing: border-box ; color: transparent ; position: relative ; cursor: text ; transform-origin: 0% 0% ; display: block ; float: left ; margin-bottom: -918px ; margin-right: -918px ; background-color: rgb(242 , 242 , 242) ; left: 514.816px ; top: 588.733px ; font-size: 18px ; font-family: sans-serif ; transform: scalex(0.924668)&quot;&gt;process_timecards&lt;/span&gt;&lt;/div&gt;&lt;div&gt;GLOBAL:&lt;/div&gt;&lt;div&gt;load_employees()&lt;/div&gt;&lt;div&gt;process_timecards()&lt;/div&gt;" style="text;html=1;strokeColor=none;fillColor=none;align=center;verticalAlign=middle;whiteSpace=wrap;rounded=0;" vertex="1" parent="WIyWlLk6GJQsqaUBKTNV-1">
          <mxGeometry x="520" y="120" width="110" height="70" as="geometry" />
        </mxCell>
      </root>
    </mxGraphModel>
  </diagram>
</mxfile>
